<svg xmlns="http://www.w3.org/2000/svg" viewBox="0 16.600000381469727 248.0500030517578 37.00347137451172" data-asc="1.06" width="248.0500030517578" height="37.00347137451172"><defs/><g fill="#ffffff"><g transform="translate(0, 0)"><path d="M12 53L0 18L7.05 18L7.60 20.90L14.25 42.40L15.05 47.05L15.65 47.05L16.45 42.40L23.10 20.90L23.65 18L30.70 18L18.70 53L12 53ZM35.75 53L36.25 49L36.25 22L35.75 18L49.35 18Q52.95 18 55.50 19.38Q58.05 20.75 59.43 23.10Q60.80 25.45 60.80 28.40Q60.80 30.40 60.13 32.30Q59.45 34.20 58.03 35.72Q56.60 37.25 54.38 38.15Q52.15 39.05 49 39.05L42.15 39.05L42.15 49L42.65 53L35.75 53M55.65 53L53.45 49L45.25 36.75L50.30 36.75L54.40 40.15L62.75 53L55.65 53M42.15 34.05L48.40 34.05Q51.35 34.05 52.93 32.63Q54.50 31.20 54.50 28.65Q54.50 26.05 52.88 24.60Q51.25 23.15 48.30 23.15L42.15 23.15L42.15 34.05ZM79 53.60Q75.80 53.65 73.17 52.98Q70.55 52.30 68.45 51.15L68.45 46.05L69.55 45.55Q71.35 46.75 73.50 47.45Q75.65 48.15 78.45 48.15Q81.60 48.15 83.53 47.13Q85.45 46.10 85.45 43.85Q85.45 42.30 84.55 41.25Q83.65 40.20 82.15 39.48Q80.65 38.75 78.85 38.13Q77.05 37.50 75.25 36.70Q73.45 35.90 71.92 34.72Q70.40 33.55 69.50 31.75Q68.60 29.95 68.60 27.25Q68.60 23.90 70.13 21.70Q71.65 19.50 74.35 18.45Q77.05 17.40 80.45 17.40Q82.85 17.40 85.18 17.85Q87.50 18.30 89.55 19.20L89.55 24.30L88.45 24.80Q86.80 23.85 84.98 23.35Q83.15 22.85 81.25 22.85Q79.80 22.85 78.28 23.25Q76.75 23.65 75.75 24.57Q74.75 25.50 74.75 27.15Q74.75 28.75 75.65 29.77Q76.55 30.80 78.05 31.50Q79.55 32.20 81.35 32.88Q83.15 33.55 84.95 34.33Q86.75 35.10 88.25 36.30Q89.75 37.50 90.65 39.25Q91.55 41 91.55 43.60Q91.55 46.15 90.65 48Q89.75 49.85 88.10 51.10Q86.45 52.35 84.15 52.95Q81.85 53.55 79 53.60ZM100.15 45.55L100.15 23.90L99.90 20.40L106.20 20.40L105.95 23.90L105.95 45.10Q105.95 47.10 106.85 47.85Q107.75 48.60 109.80 48.60Q110.90 48.60 111.68 48.40Q112.45 48.20 113.20 47.85L114.10 48.35L114.10 52.85Q113.00 53.20 111.68 53.40Q110.35 53.60 108.95 53.60Q106.50 53.60 104.50 52.85Q102.50 52.10 101.33 50.35Q100.15 48.60 100.15 45.55M95.85 32.65L95.85 27.50L98.50 27.50L103.05 29L107.65 27.50L113.30 27.50L113.30 32.65L110.80 32.40L98.35 32.40L95.85 32.65ZM130 53.60Q128.05 53.60 126.25 53.17Q124.45 52.75 123.05 51.67Q121.65 50.60 120.83 48.73Q120.00 46.85 120.00 43.95L120.00 31.50L119.50 27.50L126.30 27.50L125.80 31.50L125.80 43.70Q125.80 45.60 126.50 46.70Q127.20 47.80 128.55 48.27Q129.90 48.75 131.80 48.75Q134.50 48.75 136.05 48.02Q137.60 47.30 138.65 46.25L138.65 48.95L134.55 53Q133.50 53.30 132.40 53.45Q131.30 53.60 130 53.60M138.40 53L137.40 50L137.40 31.50L136.90 27.50L143.70 27.50L143.20 31.50L143.20 49.05L143.70 53L138.40 53ZM160.90 53.60Q157.65 53.60 155.08 52.08Q152.50 50.55 151.03 47.55Q149.55 44.55 149.55 40.25Q149.55 35.80 151.10 32.83Q152.65 29.85 155.20 28.38Q157.75 26.90 160.85 26.90Q161.95 26.90 163.10 27.07Q164.25 27.25 165.40 27.60L171.35 32.75L171.35 35.70Q170.55 34.70 169.30 33.83Q168.05 32.95 166.33 32.38Q164.60 31.80 162.20 31.80Q159.95 31.80 158.48 32.52Q157 33.25 156.23 35.13Q155.45 37 155.45 40.25Q155.45 44.70 157.05 46.70Q158.65 48.70 162.45 48.70Q164.70 48.70 166.20 48.15Q167.70 47.60 168.65 46.80Q169.60 46 170.20 45.25L170.35 47.60L165.45 53Q164.50 53.20 163.33 53.40Q162.15 53.60 160.90 53.60M168.70 53L167.95 49.75L167.95 20.60L167.45 16.60L174.25 16.60L173.75 20.60L173.75 49L174.25 53L168.70 53ZM187.50 23.80Q186.05 23.80 185.05 22.85Q184.05 21.90 184.05 20.30Q184.05 18.70 185.05 17.77Q186.05 16.85 187.50 16.85Q188.95 16.85 189.98 17.77Q191 18.70 191 20.30Q191 21.90 189.98 22.85Q188.95 23.80 187.50 23.80M184.70 53L185.20 49L185.20 32.30L179.65 32.30L179.65 27.50L191.50 27.50L191 31.50L191 49L191.50 53L184.70 53ZM210.75 53.60Q207.30 53.60 204.48 52.27Q201.65 50.95 199.98 48Q198.30 45.05 198.30 40.20Q198.30 36.60 199.28 34.05Q200.25 31.50 201.98 29.92Q203.70 28.35 205.93 27.63Q208.15 26.90 210.75 26.90Q213.30 26.90 215.55 27.63Q217.80 28.35 219.53 29.92Q221.25 31.50 222.20 34.05Q223.15 36.60 223.15 40.20Q223.15 45.05 221.48 48Q219.80 50.95 216.98 52.27Q214.15 53.60 210.75 53.60M210.75 48.70Q214 48.70 215.63 46.73Q217.25 44.75 217.25 40.20Q217.25 37.10 216.55 35.25Q215.85 33.40 214.40 32.60Q212.95 31.80 210.75 31.80Q208.55 31.80 207.10 32.60Q205.65 33.40 204.93 35.25Q204.20 37.10 204.20 40.20Q204.20 44.75 205.85 46.73Q207.50 48.70 210.75 48.70ZM246.60 28.10L246.60 32.80L245.70 33.30Q244.40 32.60 242.78 32.20Q241.15 31.80 239.15 31.80Q238.05 31.80 236.85 31.97Q235.65 32.15 234.83 32.72Q234.00 33.30 234.00 34.40Q234.00 35.60 235.03 36.25Q236.05 36.90 237.65 37.35Q239.25 37.80 241.03 38.27Q242.80 38.75 244.40 39.60Q246.00 40.45 247.03 41.92Q248.05 43.40 248.05 45.85Q248.05 48.75 246.58 50.45Q245.10 52.15 242.63 52.88Q240.15 53.60 237.15 53.60Q234.40 53.60 232.18 53.13Q229.95 52.65 228.35 52.15L228.35 47.35L229.30 46.85Q230.50 47.55 232.35 48.13Q234.20 48.70 237.15 48.70Q238.60 48.70 239.78 48.50Q240.95 48.30 241.70 47.73Q242.45 47.15 242.45 46.05Q242.45 44.75 241.45 44.08Q240.45 43.40 238.83 43Q237.20 42.60 235.43 42.15Q233.65 41.70 232.05 40.88Q230.45 40.05 229.45 38.52Q228.45 37 228.45 34.45Q228.45 32.25 229.25 30.77Q230.05 29.30 231.53 28.45Q233.00 27.60 234.93 27.25Q236.85 26.90 239.10 26.90Q241.45 26.90 243.30 27.22Q245.15 27.55 246.60 28.10Z"/></g></g></svg>